<?xml version="1.0" encoding="UTF-8"?>
<svg width="142px" height="112px" viewBox="0 0 142 112" version="1.1" xmlns="http://www.w3.org/2000/svg" xmlns:xlink="http://www.w3.org/1999/xlink">
    <!-- Generator: Sketch 59.1 (86144) - https://sketch.com -->
    <title>car-3</title>
    <desc>Created with Sketch.</desc>
    <g id="BDO-Home" stroke="none" stroke-width="1" fill="none" fill-rule="evenodd">
        <g transform="translate(-104.000000, -2009.000000)" fill="#C2CCC7" fill-rule="nonzero" id="Group-Copy-3">
            <g transform="translate(56.000000, 1963.000000)">
                <g id="car-3" transform="translate(48.000000, 46.000000)">
                    <path d="M40.3362759,77.4568276 L26.1296552,63.2504828 C23.345931,60.4728276 19.656,58.9426207 15.7249655,58.9426207 L5.88496552,58.9426207 C4.26068966,58.9426207 2.94234483,60.2609655 2.94234483,61.8852414 C2.94234483,63.5095172 4.26068966,64.8275862 5.88496552,64.8275862 L15.7246897,64.8275862 C18.0433103,64.8275862 20.3208276,65.7691034 21.9627586,67.4110345 L31.1492414,76.5975172 L5.88496552,76.5975172 C4.26068966,76.5975172 2.94234483,77.9158621 2.94234483,79.5401379 C2.94234483,81.1644138 4.26068966,82.4827586 5.88496552,82.4827586 L38.2526897,82.4827586 C39.4413793,82.4827586 40.5125517,81.7646897 40.9715862,80.6642759 C41.4306207,79.5638621 41.1776552,78.2984828 40.3362759,77.4568276 Z" id="Path"></path>
                    <path d="M38.2529655,91.3103448 C36.6286897,91.3103448 35.3103448,92.6286897 35.3103448,94.2529655 L35.3103448,103.080552 C35.3103448,104.704828 33.9862069,106.023172 32.3677241,106.023172 L14.7125517,106.023172 C13.094069,106.023172 11.769931,104.704828 11.769931,103.080552 L11.769931,91.3103448 C11.769931,89.686069 10.4515862,88.3677241 8.82731034,88.3677241 C7.20303448,88.3677241 5.88496552,89.686069 5.88496552,91.3103448 L5.88496552,103.080552 C5.88496552,107.947586 9.84551724,111.908138 14.7125517,111.908138 L32.3677241,111.908138 C37.2347586,111.908138 41.1953103,107.947586 41.1953103,103.080552 L41.1953103,94.2529655 C41.1953103,92.6286897 39.8772414,91.3103448 38.2529655,91.3103448 Z" id="Path"></path>
                    <path d="M127.888276,41.6228966 C119.778759,37.3798621 101.576276,35.4024828 70.6206897,35.4024828 C39.6651034,35.4024828 21.4628966,37.3798621 13.3531034,41.6228966 C4.11365517,46.4485517 0,54.5111724 0,67.7702069 C0,80.5172414 2.91889655,91.6046897 3.04248276,92.0695172 C3.38372414,93.3583448 4.54896552,94.2529655 5.88496552,94.2529655 L31.6733793,94.2529655 L42.8195862,99.8262069 C43.2314483,100.032276 43.6846897,100.138207 44.137931,100.138207 L97.1034483,100.138207 C97.5566897,100.138207 98.0096552,100.032276 98.4157241,99.8262069 L109.568,94.2529655 L135.356414,94.2529655 C136.692414,94.2529655 137.857655,93.3583448 138.198897,92.0695172 C138.322483,91.6046897 141.241379,80.5172414 141.241379,67.7702069 C141.241379,54.5111724 137.127724,46.4485517 127.888276,41.6228966 Z M133.031724,88.3677241 L108.879448,88.3677241 C108.420414,88.3677241 107.967172,88.4736552 107.561103,88.6797241 L96.4088276,94.2529655 L44.8322759,94.2529655 L33.686069,88.6797241 C33.2742069,88.4736552 32.8209655,88.3677241 32.3677241,88.3677241 L8.21544828,88.3677241 C7.39751724,84.6190345 5.88496552,76.5211034 5.88496552,67.769931 C5.88496552,56.6882759 8.83917241,50.6209655 16.072,46.8366897 C23.1222069,43.1525517 41.472,41.2871724 70.6206897,41.2871724 C99.7693793,41.2871724 118.118897,43.1528276 125.169379,46.8366897 C132.402207,50.6206897 135.356414,56.6882759 135.356414,67.769931 C135.356414,76.5211034 133.843862,84.6190345 133.031724,88.3677241 Z" id="Shape"></path>
                    <path d="M135.356414,76.5977931 L110.091862,76.5977931 L119.272552,67.4113103 C120.920276,65.7693793 123.192,64.8278621 125.51669,64.8278621 L135.356414,64.8278621 C136.98069,64.8278621 138.299034,63.5095172 138.299034,61.8852414 C138.299034,60.2609655 136.98069,58.9426207 135.356414,58.9426207 L125.51669,58.9426207 C121.585379,58.9426207 117.895448,60.4728276 115.112,63.2504828 L100.905379,77.4571034 C100.069793,78.2987586 99.8165517,79.5638621 100.269793,80.6645517 C100.723034,81.7652414 101.8,82.4830345 102.98869,82.4830345 L135.356414,82.4830345 C136.98069,82.4830345 138.299034,81.1646897 138.299034,79.5404138 C138.299034,77.9158621 136.98069,76.5977931 135.356414,76.5977931 Z" id="Path"></path>
                    <path d="M105.654345,60.6375172 C105.165793,59.6016552 104.130207,58.9426207 102.988414,58.9426207 L38.2529655,58.9426207 C37.1111724,58.9426207 36.0755862,59.6016552 35.5870345,60.6375172 C35.1045517,61.6673103 35.2573793,62.8915862 35.9931034,63.7682759 L50.7056552,81.4234483 C51.2648276,82.0943448 52.0946207,82.4827586 52.9655172,82.4827586 L88.2758621,82.4827586 C89.1467586,82.4827586 89.9765517,82.0943448 90.5357241,81.4234483 L105.248276,63.7682759 C105.984,62.8913103 106.137103,61.6673103 105.654345,60.6375172 Z M86.8929655,76.5977931 L54.3426207,76.5977931 L44.5321379,64.8275862 L96.7031724,64.8275862 L86.8929655,76.5977931 Z" id="Shape"></path>
                    <path d="M129.230069,43.0587586 C125.881379,35.3611034 114.676414,9.99062069 110.780414,6.67724138 C105.925241,2.55172414 92.0187586,0.091862069 73.5633103,0.091862069 L67.6783448,0.091862069 C49.2228966,0.091862069 35.3164138,2.55172414 30.4612414,6.67144828 C26.5652414,9.98482759 15.3542069,35.3553103 12.0115862,43.0529655 C11.3702069,44.5478621 12.0526897,46.278069 13.5417931,46.9252414 C15.0248276,47.5726897 16.7668966,46.8957241 17.414069,45.4011034 C24.0582069,30.105931 32.1856552,13.1097931 34.2747586,11.161931 C36.5404138,9.23751724 46.1271724,5.97710345 67.6783448,5.97710345 L73.5633103,5.97710345 C95.1144828,5.97710345 104.701241,9.23751724 106.955034,11.150069 C109.056,13.1097931 117.183172,30.0998621 123.827586,45.4011034 C124.310069,46.5133793 125.398897,47.1724138 126.528828,47.1724138 C126.917241,47.1724138 127.32331,47.096 127.699862,46.9310345 C129.18869,46.2838621 129.871448,44.5475862 129.230069,43.0587586 Z" id="Path"></path>
                    <path d="M132.413793,88.3677241 C130.789517,88.3677241 129.471172,89.686069 129.471172,91.3103448 L129.471172,103.080552 C129.471172,104.704828 128.147034,106.023172 126.528552,106.023172 L108.873379,106.023172 C107.254897,106.023172 105.930759,104.704828 105.930759,103.080552 L105.930759,94.2529655 C105.930759,92.6286897 104.612414,91.3103448 102.988138,91.3103448 C101.363862,91.3103448 100.045517,92.6286897 100.045517,94.2529655 L100.045517,103.080552 C100.045517,107.947586 104.006069,111.908138 108.873103,111.908138 L126.528276,111.908138 C131.39531,111.908138 135.355862,107.947586 135.355862,103.080552 L135.355862,91.3103448 C135.356414,89.686069 134.038069,88.3677241 132.413793,88.3677241 Z" id="Path"></path>
                </g>
            </g>
        </g>
    </g>
</svg>