<?xml version="1.0" encoding="UTF-8"?>
<svg width="160px" height="64px" viewBox="0 0 160 64" version="1.1" xmlns="http://www.w3.org/2000/svg" xmlns:xlink="http://www.w3.org/1999/xlink">
    <!-- Generator: Sketch 57.1 (83088) - https://sketch.com -->
    <title>car</title>
    <desc>Created with Sketch.</desc>
    <g id="Design" stroke="none" stroke-width="1" fill="none" fill-rule="evenodd">
        <g id="BDO-Home" transform="translate(-96.000000, -1212.000000)" fill="#F0F1F3" fill-rule="nonzero">
            <g id="Group-Copy-3" transform="translate(56.000000, 1134.000000)">
                <g id="car" transform="translate(40.000000, 78.000000)">
                    <path d="M157.379506,16.0249897 L139.303499,13.4384328 C136.007502,11.4095478 132.586985,9.59331626 129.060356,7.99950251 C117.413923,2.71355223 104.773495,-0.0140503307 91.9868904,-1.96333902e-14 L88.8468151,-1.96333902e-14 C73.7571277,0.0109039375 58.908901,3.80502704 45.6556164,11.0363198 L36.5331554,16.02282 C25.854733,16.1432509 15.3820394,18.9891146 6.10474022,24.2880844 C2.33448379,26.4547598 0.00649670814,30.4745559 0,34.8285211 L0,50.6614176 C0,52.1348002 1.19106316,53.3282621 2.66148463,53.3282621 L11.5966242,53.3282621 C14.502818,61.6358403 23.5798021,66.0104199 31.8706844,63.0983734 C36.434622,61.4958799 40.0218876,57.9003052 41.6211608,53.3282621 L112.716804,53.3282621 C115.622998,61.6358403 124.699982,66.0104199 132.990864,63.0983734 C137.553719,61.4958799 141.142067,57.9003052 142.74134,53.3282621 L143.696356,53.3282621 C144.035268,53.3282621 144.370931,53.2642491 144.686021,53.1383932 L153.304988,49.6730143 C157.15537,48.1453833 159.677175,44.4109334 159.663158,40.2631115 L159.663158,18.6647099 C159.663158,17.3388826 158.689676,16.2137738 157.379506,16.0249897 Z M36.8344537,50.6632493 C35.6426997,56.4942519 29.9492519,60.2555172 24.1176614,59.0638834 C18.2849746,57.8722496 14.5233301,52.1793758 15.715084,46.347277 C16.9079343,40.5162744 22.6013821,36.7550091 28.4329726,37.9466429 C33.4510566,38.9716453 37.0537276,43.386281 37.0526316,48.5080039 C37.0526316,49.231535 36.9791745,49.9539696 36.8344537,50.6632493 Z M84.8842105,48.5052632 L42.4865861,48.5052632 C42.4865861,39.5754386 35.3692799,32.3364034 26.5882857,32.3364034 C17.8072916,32.3364034 10.6889072,39.5754386 10.6889072,48.5052632 L5.38947368,48.5052632 L5.38947368,35.1982456 C5.3927084,32.7300438 6.69303721,30.4504385 8.79987215,29.2245614 C17.4471672,24.203728 27.2309027,21.5611843 37.1871528,21.5578947 L84.8842105,21.5578947 L84.8842105,48.5052632 Z M85.5578947,16.1684211 L47.8315789,16.1684211 L48.3484377,15.8812928 C59.8054696,9.55116961 72.5317495,5.96262138 85.5578947,5.38947368 L85.5578947,16.1684211 Z M90.2736842,5.38947368 L91.7887177,5.38947368 C102.575845,5.3774659 113.264947,7.43873353 123.284211,11.4636873 L118.610588,16.1684211 L90.2736842,16.1684211 L90.2736842,5.38947368 Z M138.560769,50.6632493 C137.369016,56.4942519 131.675568,60.2555172 125.842882,59.0638834 C120.011292,57.8722496 116.249648,52.1793758 117.441402,46.347277 C118.633156,40.5162744 124.327699,36.7550091 130.159289,37.9466429 C135.177373,38.9716453 138.780043,43.386281 138.778947,48.5080039 C138.778947,49.231535 138.70549,49.9539696 138.560769,50.6632493 Z M154.273684,24.5099621 L146.27339,24.5099621 L146.27339,29.8436979 L154.273684,29.8436979 L154.273684,40.7759032 C154.280168,42.7407925 153.082244,44.5093012 151.254976,45.2308096 L143.606272,48.3023728 C143.606272,48.0571687 143.574805,47.8141343 143.558529,47.5689299 C143.542253,47.3237258 143.536827,47.0362075 143.510786,46.7693036 C143.483659,46.5023997 143.43049,46.235496 143.388172,45.9696773 C143.344769,45.7027734 143.313302,45.4358697 143.260133,45.1939203 C143.206964,44.950886 143.128839,44.6818122 143.059394,44.427928 C142.989949,44.175129 142.93678,43.9190749 142.856485,43.6706158 C142.777274,43.4232415 142.680702,43.185632 142.590641,42.9425977 C142.499494,42.7006482 142.417029,42.4500193 142.323712,42.2091547 C142.230395,41.9693754 142.104527,41.7512956 141.992764,41.5245359 C141.881001,41.297776 141.771408,41.0493168 141.646624,40.8203871 C141.520755,40.5914574 141.379695,40.3961622 141.259252,40.1835069 C141.139894,39.9697669 140.993408,39.7267326 140.841498,39.5086527 C140.688502,39.2894877 140.547442,39.1169769 140.400957,38.9195114 C140.254471,38.7220461 140.088455,38.4898614 139.918098,38.2848012 C139.747741,38.0797411 139.588235,37.9191648 139.422218,37.7509937 C139.257286,37.5839077 139.072823,37.3571478 138.889445,37.1705321 C138.704982,36.9839165 138.523774,36.8363599 138.340397,36.6714437 C138.155934,36.5065276 137.95845,36.3112321 137.755541,36.1376362 C137.553716,35.9651251 137.347552,35.8316734 137.145728,35.679777 C136.942818,35.5278805 136.739909,35.3651342 136.527234,35.2230027 C136.313474,35.0819558 136.073672,34.9571837 135.844721,34.8074573 C135.614685,34.6577307 135.428052,34.5405534 135.212122,34.4266311 C134.996191,34.3116239 134.727092,34.1911917 134.481865,34.0740144 C134.236638,33.9568371 134.044579,33.8526795 133.817798,33.7572018 C133.591017,33.6606391 133.283941,33.5597362 133.018097,33.4642585 C132.751168,33.3676958 132.577556,33.2928326 132.350775,33.2212241 C132.046954,33.1279164 131.735537,33.0606479 131.425205,32.9836149 C131.222296,32.9358757 131.028067,32.8718624 130.822988,32.8295483 C130.495295,32.7622797 130.158921,32.7253907 129.825802,32.6765669 C129.628319,32.6505275 129.439515,32.6071286 129.242031,32.5886838 C128.708174,32.5355201 128.175401,32.506226 127.615502,32.506226 C118.781895,32.5149058 111.623647,39.672484 111.614966,48.5052632 L90.2736842,48.5052632 L90.2736842,21.8430941 L119.606553,21.8430941 C120.314023,21.8430941 120.992196,21.5620858 121.491331,21.0619123 L128.406523,14.1473684 C131.309102,15.5285415 134.131385,17.0724603 136.860352,18.7715308 C137.175025,18.9679112 137.526589,19.0970233 137.89443,19.150187 L154.273684,21.4883076 L154.273684,24.5099621 Z" id="Shape"></path>
                </g>
            </g>
        </g>
    </g>
</svg>