<?xml version="1.0" encoding="UTF-8"?>
<svg width="80px" height="80px" viewBox="0 0 80 80" version="1.1" xmlns="http://www.w3.org/2000/svg" xmlns:xlink="http://www.w3.org/1999/xlink">
    <!-- Generator: Sketch 59 (86127) - https://sketch.com -->
    <title>bank (3)</title>
    <desc>Created with Sketch.</desc>
    <g id="P-Vivienda" stroke="none" stroke-width="1" fill="none" fill-rule="evenodd">
        <g id="Vivienda-|-S1-Fondos" transform="translate(-878.000000, -875.000000)" fill="#C2CCC7" fill-rule="nonzero">
            <g id="Group-2" transform="translate(506.000000, 372.000000)">
                <g id="Group-Copy-5" transform="translate(170.000000, 474.000000)">
                    <g id="bank-(3)" transform="translate(202.000000, 29.000000)">
                        <path d="M78.5233653,20.2534621 L41.0965145,0.29240419 C40.3606336,-0.0974090275 39.483421,-0.0974090275 38.7475401,0.29240419 L1.32068931,20.2534621 C0.506881158,20.6871979 -2.84217094e-14,21.5351878 -2.84217094e-14,22.4561459 L-2.84217094e-14,34.9317628 L4.99017593,34.9317628 L4.99017593,65.403609 C2.07640625,66.4967154 -2.84217094e-14,69.1935286 -2.84217094e-14,72.3587907 L-2.84217094e-14,79.8442317 L79.8440546,79.8442317 L79.8440546,72.3587907 C79.8440546,69.1935286 77.7676483,66.4968925 74.8538787,65.403609 L74.8538787,34.9317628 L79.8440546,34.9317628 L79.8440546,22.4561459 C79.8440546,21.5351878 79.3373505,20.6871979 78.5233653,20.2534621 Z M32.4366748,34.9317628 L32.4366748,64.8733497 L19.9610579,64.8733497 L19.9610579,34.9317628 L32.4366748,34.9317628 Z M59.8831738,34.9317628 L59.8831738,64.8733497 L47.4075568,64.8733497 L47.4075568,34.9317628 L59.8831738,34.9317628 Z M42.4172038,64.8733497 L37.4270279,64.8733497 L37.4270279,34.9317628 L42.4172038,34.9317628 L42.4172038,64.8733497 Z M14.9707049,64.8733497 L9.98052896,64.8733497 L9.98052896,34.9317628 L14.9707049,34.9317628 L14.9707049,64.8733497 Z M74.8538787,74.8538787 L4.99035303,74.8538787 L4.99035303,72.3587907 C4.99035303,70.9821355 6.26959923,69.8637027 7.84124961,69.8637027 L72.0029821,69.8637027 C73.5746325,69.8637027 74.8538787,70.9821355 74.8538787,72.3587907 L74.8538787,74.8538787 Z M69.8635256,64.8733497 L64.8733497,64.8733497 L64.8733497,34.9317628 L69.8635256,34.9317628 L69.8635256,64.8733497 Z M4.99035303,29.9415869 L4.99035303,23.9523485 L39.9221158,5.32420034 L74.8538787,23.9523485 L74.8538787,29.9415869 L4.99035303,29.9415869 Z" id="Shape"></path>
                        <path d="M43.4504479,13.9372837 C45.3993369,15.8861726 45.3993369,19.0457673 43.4504479,20.9944792 C41.5015589,22.9433681 38.3419643,22.9433681 36.3932524,20.9944792 C34.4443635,19.0455902 34.4443635,15.8859955 36.3932524,13.9372837 C38.3419643,11.9883947 41.5017361,11.9883947 43.4504479,13.9372837" id="Path"></path>
                    </g>
                </g>
            </g>
        </g>
    </g>
</svg>