<?xml version="1.0" encoding="UTF-8"?>
<svg width="108px" height="95px" viewBox="0 0 108 95" version="1.1" xmlns="http://www.w3.org/2000/svg" xmlns:xlink="http://www.w3.org/1999/xlink">
    <!-- Generator: Sketch 58 (84663) - https://sketch.com -->
    <title>cash</title>
    <desc>Created with Sketch.</desc>
    <g id="Propiedades" stroke="none" stroke-width="1" fill="none" fill-rule="evenodd">
        <g id="Propiedades-|-Casas-|-Article" transform="translate(-969.000000, -545.000000)" fill="#C2CCC7" fill-rule="nonzero">
            <g id="Group-2-Copy-2" transform="translate(694.000000, 537.000000)">
                <g id="cash" transform="translate(329.000000, 55.500000) scale(-1, 1) translate(-329.000000, -55.500000) translate(275.000000, 8.000000)">
                    <path d="M40.6486102,63.1865309 L58.3645267,68.6441248 C58.3419587,68.7587801 58.2968226,68.8963665 58.2516865,69.0110218 C57.7777575,70.3180926 56.8073315,71.0518868 55.2275683,71.3041285 C49.4050123,72.2443023 39.7458883,71.6480945 39.6556162,71.6480945 C38.1661251,71.5563703 36.8797464,72.7029236 36.7894743,74.216374 C36.6992021,75.7298244 37.8276044,77.0368952 39.3170955,77.1286195 C39.7458883,77.1515505 49.6532608,77.7706893 56.085154,76.7158603 C62.4719112,75.6839623 64.299923,69.9741266 63.9614023,66.3739492 C63.8485621,65.2503269 63.1038165,64.3101532 62.0431183,63.9891182 L42.2058054,57.8894545 C32.4112732,54.8854847 21.6688831,60.4348029 21.2175221,60.6641136 C21.172386,60.6870446 21.1046819,60.7099757 21.0595458,60.7558378 L1.31250508,72.8863721 C0.026126429,73.6660284 -0.380098409,75.3629273 0.387215174,76.6699981 C0.906280244,77.5184476 1.78643406,78 2.71172397,78 C3.18565295,78 3.65958192,77.8624136 4.11094285,77.6101719 L23.7677114,65.5713618 C24.6252972,65.1127405 33.268859,60.9163553 40.6486102,63.1865309 Z" id="Path"></path>
                    <path d="M107.66943,58.2087229 C106.127899,55.3906676 101.32458,50.8951985 94.0414063,54.1158331 C87.1603714,57.179909 72.6163659,64.1803162 72.4599787,64.2474127 C71.1195174,64.8960128 70.5609918,66.4839645 71.2088815,67.8258956 C71.8567711,69.1678267 73.4653247,69.7269646 74.7834451,69.0783646 C74.9398322,69.0112681 89.3944737,62.0332265 96.2084855,59.0138815 C98.1521544,58.1416263 99.783049,58.1416263 101.190533,59.0138815 C101.235215,59.036247 101.257557,59.0586126 101.302239,59.0809781 L64.8640312,85.8077721 C62.2724726,87.7088411 58.9883423,88.4916343 55.8382581,87.9995929 L23.3320707,82.8107927 C22.5724759,82.6989651 21.7905401,82.9002548 21.1873325,83.3922962 L12.9658363,90.2585102 C11.8264442,91.1978619 11.670057,92.8976413 12.630721,94.0382827 C13.1669055,94.6645172 13.9265003,95 14.686095,95 C15.2893026,95 15.8925102,94.7987103 16.4063537,94.3737655 L23.689527,88.2903446 L55.0116403,93.3002206 C59.5692089,94.0382827 64.3278466,92.8752758 68.0587973,90.1466826 L106.932176,61.6530126 C107.982204,60.847854 108.31732,59.3940953 107.66943,58.2087229 Z" id="Path"></path>
                    <path d="M57.5,55 C61.6421936,55 65.5185781,53.382416 68.4646302,50.4574696 C74.5117899,44.4081487 74.5117899,34.5918513 68.4646302,28.5425304 C65.5407288,25.617584 61.6421936,24 57.5,24 C53.3578064,24 49.4814219,25.617584 46.5353698,28.5425304 C40.4882101,34.5918513 40.4882101,44.4081487 46.5353698,50.4574696 C49.4814219,53.382416 53.3578064,55 57.5,55 Z M50.3010004,32.3095068 C52.2281172,30.3817012 54.7754555,29.3180843 57.5,29.3180843 C60.2245445,29.3180843 62.7718828,30.3817012 64.6989996,32.3095068 C68.6639871,36.2759114 68.6639871,42.7462473 64.6989996,46.7126519 C62.7718828,48.6404575 60.2245445,49.7040743 57.5,49.7040743 C54.7754555,49.7040743 52.2281172,48.6404575 50.3010004,46.7126519 C46.3360129,42.7462473 46.3360129,36.2759114 50.3010004,32.3095068 Z" id="Shape"></path>
                    <path d="M76,24 C79.2102611,24 82.2226294,22.7472527 84.4874027,20.4835165 C89.1708658,15.8021978 89.1708658,8.1978022 84.4874027,3.51648352 C82.2226294,1.25274725 79.2102611,0 76,0 C72.7897389,0 69.7773706,1.25274725 67.5125973,3.51648352 C62.8291342,8.1978022 62.8291342,15.8021978 67.5125973,20.4835165 C69.7773706,22.7692308 72.811727,24 76,24 Z M71.2505726,7.25274725 C72.5258818,5.97802198 74.2189647,5.27472527 76.0219881,5.27472527 C77.8250115,5.27472527 79.5180944,5.97802198 80.7934036,7.25274725 C83.4099863,9.86813187 83.4099863,14.1538462 80.7934036,16.7692308 C79.5180944,18.043956 77.8250115,18.7472527 76.0219881,18.7472527 C74.2189647,18.7472527 72.5258818,18.043956 71.2505726,16.7692308 C68.6339899,14.1318681 68.6339899,9.86813187 71.2505726,7.25274725 Z" id="Shape"></path>
                </g>
            </g>
        </g>
    </g>
</svg>