<?xml version="1.0" encoding="UTF-8"?>
<svg width="100px" height="100px" viewBox="0 0 100 100" version="1.1" xmlns="http://www.w3.org/2000/svg" xmlns:xlink="http://www.w3.org/1999/xlink">
    <!-- Generator: Sketch 57.1 (83088) - https://sketch.com -->
    <title>heart</title>
    <desc>Created with Sketch.</desc>
    <g id="Design" stroke="none" stroke-width="1" fill="none" fill-rule="evenodd">
        <g id="BDO-Home" transform="translate(-966.000000, -1192.000000)" fill="#FBFBFB" fill-rule="nonzero">
            <g id="Group-Copy-3" transform="translate(896.000000, 1134.000000)">
                <g id="heart" transform="translate(119.645390, 108.000000) scale(-1, 1) translate(-119.645390, -108.000000) translate(70.000000, 58.000000)">
                    <path d="M77.9932957,5.62175864 C74.7675089,1.9964816 70.296127,0 65.4025654,0 C59.9404089,0 55.2056738,2.58272385 51.7101341,7.4687223 C51.4479444,7.83505098 51.2028203,8.20137965 50.9730164,8.56402371 C50.7434065,8.20118573 50.4982824,7.83505098 50.2360926,7.4687223 C46.740359,2.58272385 42.0056239,0 36.5434674,0 C31.6499058,0 27.17833,1.9964816 23.9527371,5.62156472 C20.8917886,9.06183511 19.2057846,13.6610151 19.2057846,18.5718362 C19.2057846,23.9085217 21.2767343,28.8329178 25.7225177,34.0697307 C29.6016456,38.638658 35.1658078,43.3349956 41.6088486,48.7731051 C43.9896941,50.7827737 46.4517952,52.8607048 49.0680685,55.1282968 C49.6145556,55.6018672 50.2936891,55.8388464 50.9728225,55.8388464 C51.651762,55.8388464 52.3308954,55.6018672 52.8775765,55.1282968 C55.4934619,52.8612866 57.9551751,50.7833555 60.3360206,48.7740747 C64.4738475,45.2814439 68.047346,42.2652926 71.1484375,39.3397052 C77.1691046,33.6591866 82.7402482,27.2116855 82.7402482,18.5720301 C82.7402482,13.6610151 81.0544382,9.06202903 77.9932957,5.62175864 Z M67.1568318,35.1087932 C64.1730663,37.9240359 60.6563885,40.8920933 56.5844969,44.328873 C54.7730219,45.857602 52.9151984,47.4256981 50.9730164,49.0911458 C49.0304466,47.4258921 47.1720412,45.857408 45.3605663,44.3282912 C32.6779145,33.6236979 25.0224402,27.162428 25.0224402,18.5720301 C25.0224402,11.300338 29.9749557,5.81684951 36.5432735,5.81684951 C40.0523881,5.81684951 43.0367354,7.4687223 45.4133145,10.7265071 C47.3638353,13.3999889 48.1645612,16.171598 48.1699911,16.190215 C48.5190603,17.4501607 49.6655585,18.3224457 50.9728225,18.3224457 C52.2800864,18.3224457 53.4265847,17.4501607 53.7756538,16.190215 C53.8043551,16.0864639 56.7485594,5.81684951 65.4025654,5.81684951 C71.9706893,5.81684951 76.9237866,11.3005319 76.9237866,18.5720301 C76.9237866,23.8408411 74.1853391,28.4772551 67.1568318,35.1087932 Z" id="Shape"></path>
                    <path d="M90.5551308,58.5751607 C88.1424812,58.5751607 85.8151596,59.588043 84.1700742,61.353945 L75.6223404,70.5301973 C74.5175366,66.9782247 71.1998282,64.3918163 67.2890902,64.3918163 L53.8538065,64.3918163 C51.9729056,64.3918163 50.1591035,63.7074468 48.7469249,62.4647606 C41.1521498,55.78125 29.7364251,55.72249 22.0695091,62.2799479 C20.4884198,60.041445 17.8832004,58.5753546 14.9401596,58.5753546 L2.91938165,58.5753546 C1.31327571,58.5753546 0.0110538564,59.8773825 0.0110538564,61.4836824 L0.0110538564,96.3828402 C0.0110538564,97.9889461 1.31308178,99.291168 2.91938165,99.291168 L14.9401596,99.291168 C17.5519725,99.291168 19.8977172,98.135943 21.4980053,96.311475 L23.2202737,96.7955175 C29.1113974,98.4514628 35.2011026,99.291168 41.3204787,99.291168 L67.2888963,99.291168 C73.6625111,99.291168 79.7508588,96.2467032 83.5751053,91.1477726 L97.5376773,72.5313331 C97.5378712,72.5309453 97.5380652,72.5305574 97.538453,72.5301695 C98.6777759,71.010943 99.2799202,69.202377 99.2799202,67.2997562 C99.2799202,62.4890016 95.3658854,58.5751607 90.5551308,58.5751607 Z M17.8484874,90.5659907 C17.8484874,92.1695756 16.5439384,93.4743185 14.9401596,93.4743185 L5.82751551,93.4743185 L5.82751551,64.3916223 L14.9401596,64.3916223 C16.5437445,64.3916223 17.8484874,65.6961713 17.8484874,67.2999501 L17.8484874,90.5659907 Z M92.8847795,69.0408355 C92.8847795,69.0410295 92.8845855,69.0410295 92.8843916,69.0412234 L78.9220135,87.6580508 C76.1903535,91.3001995 71.8415337,93.4745124 67.2888963,93.4745124 L41.3210605,93.4745124 C35.7338209,93.4745124 30.1735372,92.7079178 24.7947695,91.1960605 L23.6573859,90.8762744 C23.6610705,90.7731051 23.6653369,90.6701297 23.6653369,90.5661846 L23.6653369,68.6145833 L25.6920711,66.8310339 C31.1685782,62.0119404 39.4281361,62.0115525 44.905031,66.8310339 C47.3797374,69.0086436 50.5576241,70.2078901 53.8541944,70.2078901 L67.2894781,70.2078901 C68.8930629,70.2078901 70.1978059,71.512633 70.1978059,73.1162179 C70.1978059,74.7198027 68.8932569,76.0245457 67.2894781,76.0245457 L46.6197363,76.0245457 C45.0136303,76.0245457 43.7114085,77.3265736 43.7114085,78.9328734 C43.7114085,80.5391733 45.0134364,81.8412012 46.6197363,81.8412012 L69.2382535,81.8412012 C71.6509031,81.8412012 73.9778369,80.8287068 75.6225344,79.0631926 L88.4261968,65.3184009 C88.9829621,64.720717 89.7390847,64.3916223 90.5551308,64.3916223 C92.1587156,64.3916223 93.4634586,65.6961713 93.4634586,67.2999501 C93.4634586,67.9340924 93.2633256,68.5360428 92.8847795,69.0408355 Z" id="Shape"></path>
                </g>
            </g>
        </g>
    </g>
</svg>