<?xml version="1.0" encoding="UTF-8"?>
<svg width="112px" height="112px" viewBox="0 0 112 112" version="1.1" xmlns="http://www.w3.org/2000/svg" xmlns:xlink="http://www.w3.org/1999/xlink">
    <!-- Generator: Sketch 59.1 (86144) - https://sketch.com -->
    <title>houses</title>
    <desc>Created with Sketch.</desc>
    <g id="BDO-Home" stroke="none" stroke-width="1" fill="none" fill-rule="evenodd">
        <g transform="translate(-129.000000, -2505.000000)" fill="#C2CCC7" fill-rule="nonzero" id="Group-Copy-5">
            <g transform="translate(55.000000, 2481.000000)">
                <g id="houses" transform="translate(74.000000, 24.000000)">
                    <path d="M98.56,26.88 C91.1487499,26.88 85.12,20.8512501 85.12,13.44 C85.12,6.02874989 91.1487499,0 98.56,0 C105.97125,0 112,6.02874989 112,13.44 C112,20.8512501 105.97125,26.88 98.56,26.88 Z M98.56,4.48 C93.6197499,4.48 89.6,8.49974989 89.6,13.44 C89.6,18.3802501 93.6197499,22.4 98.56,22.4 C103.50025,22.4 107.52,18.3802501 107.52,13.44 C107.52,8.49974989 103.50025,4.48 98.56,4.48 Z" id="Shape"></path>
                    <path d="M58.6561957,24.192 L2.19051584,24.192 C0.980597995,24.192 0,23.2101095 0,22.0005096 C0,14.4253147 6.27462988,8.27715663 13.8918065,8.51000249 C17.1022813,3.224744 22.7787976,0 29.0405926,0 C34.1711914,0 39.0622026,2.25227012 42.4147185,6.09337081 C43.586131,5.80231327 44.7909147,5.65592872 46.0136677,5.65592872 C54.2375143,5.65592872 60.928,12.349391 60.928,20.5760408 C60.928,21.117921 60.8954846,21.6786344 60.8330208,22.242772 C60.7089484,23.3530701 59.7719897,24.192 58.6561957,24.192 L58.6561957,24.192 Z M4.64714518,19.8090191 L56.5187313,19.8090191 C56.1242673,14.3551184 51.5635448,10.0389096 46.0136677,10.0389096 C44.7652447,10.0389096 43.5442032,10.2546344 42.3847702,10.6800917 C41.4657802,11.0182319 40.4329862,10.7032052 39.8579758,9.91050186 C37.3474394,6.44948801 33.3035417,4.38298089 29.0405926,4.38298089 C23.9425092,4.38298089 19.3603949,7.22250186 17.0808894,11.792958 C16.659044,12.6387363 15.7417655,13.1181248 14.8073736,12.9837249 C14.3658477,12.919521 13.9226107,12.8869912 13.4904972,12.8869912 C9.22241383,12.8869912 5.63031024,15.8386549 4.64714518,19.8090191 Z" id="Shape"></path>
                    <path d="M98.1093749,103.04 C97.9641251,103.04 97.8188749,103.024248 97.6727499,102.994494 C97.5292501,102.96824 97.3883749,102.925358 97.2545,102.86935 C97.1197499,102.813342 96.9893749,102.744207 96.8686251,102.663695 C96.7452501,102.580558 96.6315,102.486044 96.5282501,102.383654 C96.4232501,102.280389 96.3313749,102.165747 96.2482501,102.042354 C96.1677499,101.921586 96.0986251,101.792067 96.0426251,101.657298 C95.9866251,101.520777 95.9437499,101.379882 95.9148749,101.238111 C95.8851251,101.09284 95.872,100.944943 95.872,100.799672 C95.872,100.653526 95.8851251,100.505629 95.9148749,100.362108 C95.9437499,100.219462 95.9866251,100.077691 96.0426251,99.9437966 C96.0986251,99.8072766 96.1677499,99.6768825 96.2482501,99.5561147 C96.3287499,99.4327217 96.4232501,99.3189551 96.5265,99.2156899 C96.6288749,99.1124247 96.7452501,99.017911 96.8668749,98.937399 C96.9893749,98.8568875 97.1197499,98.7877523 97.2545,98.7317441 C97.3883749,98.6757359 97.5292501,98.6328546 97.6727499,98.6039752 C97.9615,98.5453416 98.2598749,98.5453416 98.5486251,98.6039752 C98.6921251,98.6328546 98.833,98.6757359 98.9677499,98.7317441 C99.1025,98.7877523 99.232,98.8568875 99.3553749,98.937399 C99.4761251,99.017911 99.5925,99.1124247 99.6957499,99.2156899 C99.799,99.3189551 99.8926251,99.4327217 99.9731251,99.5561147 C100.0545,99.6768825 100.123625,99.8072766 100.179625,99.9437966 C100.235625,100.078566 100.2785,100.219462 100.307375,100.362108 C100.33625,100.505629 100.352,100.653526 100.352,100.799672 C100.352,100.944943 100.33625,101.09284 100.307375,101.238111 C100.2785,101.379882 100.235625,101.520777 100.179625,101.657298 C100.123625,101.792067 100.0545,101.921586 99.9731251,102.042354 C99.8926251,102.165747 99.799,102.280389 99.6957499,102.383654 C99.5925,102.486044 99.4761251,102.580558 99.3553749,102.663695 C99.232,102.744207 99.1025,102.813342 98.9677499,102.86935 C98.833,102.925358 98.6921251,102.96824 98.5486251,102.994494 C98.4033749,103.024248 98.2572501,103.04 98.1093749,103.04 L98.1093749,103.04 Z" id="Path"></path>
                    <path d="M109.8125,88.6469572 L105.759644,88.6469572 L105.759644,64.2910808 L106.415039,64.7719969 C106.797852,65.0530294 107.252441,65.1965355 107.710449,65.1965355 C108.047119,65.1965355 108.386353,65.118803 108.698242,64.9607756 C109.43396,64.5883433 109.897949,63.8340824 109.897949,63.009777 L109.897949,51.0355662 C109.897949,50.3393911 109.566406,49.6850718 109.005005,49.2724922 L79.090088,27.3041116 C78.3193359,26.7386295 77.2700195,26.7386295 76.4992677,27.3041116 L63.3554688,36.9566001 L57.2954102,32.5062049 C56.5246583,31.9398688 55.4753417,31.9398688 54.7045898,32.5062049 L48.6436768,36.9566001 L35.4998779,27.3041116 C34.7299805,26.7386295 33.6806641,26.7386295 32.909912,27.3041116 L2.99414063,49.2733463 C2.43359375,49.6850718 2.10205078,50.3393911 2.10205078,51.0355662 L2.10205078,63.009777 C2.10205078,63.8340824 2.56604009,64.5891974 3.30175781,64.9607756 C3.61364741,65.118803 3.95202631,65.1965355 4.28955078,65.1965355 C4.74670416,65.1965355 5.20214844,65.0538836 5.5841065,64.772851 L6.2403565,64.2910808 L6.2403565,88.6469572 L2.1875,88.6469572 C0.979247938,88.6469572 0,89.6258734 0,90.8337157 L0,109.813242 C0,111.021084 0.979247938,112 2.1875,112 L109.8125,112 C111.020752,112 112,111.021084 112,109.813242 L112,90.8337157 C112,89.6258734 111.020752,88.6469572 109.8125,88.6469572 Z M101.384643,61.0784252 L101.385498,88.6469572 L83.9658203,88.6469572 L83.9649659,69.4923199 L84.6212159,69.9740901 C84.6323242,69.9826322 84.6434326,69.99032 84.6545411,69.9988621 C84.6588135,70.0014246 84.6622315,70.0031331 84.6656495,70.0056958 C84.6733398,70.011675 84.6810302,70.0168003 84.6895752,70.0219255 C84.6938477,70.0253423 84.6981201,70.0279049 84.7023927,70.0313217 C84.7092286,70.0355927 84.7160646,70.040718 84.7237549,70.044989 C84.7280273,70.0484058 84.7331542,70.0518226 84.7382812,70.0543853 C84.7451172,70.0595104 84.7528076,70.0637813 84.7604979,70.0689066 C84.7639161,70.0714693 84.7681885,70.074032 84.7724609,70.0757403 C84.7801513,70.0808656 84.7886963,70.0859907 84.7972412,70.0911158 C84.8006591,70.0928243 84.8049317,70.095387 84.8083495,70.0979494 C84.8186036,70.1030747 84.8280029,70.1090542 84.8382568,70.1150337 C84.8399659,70.1158878 84.8425292,70.1175961 84.8442383,70.1184503 C84.8690185,70.1321175 84.8937989,70.1457848 84.9194336,70.1585979 C84.9211427,70.159452 84.9219971,70.159452 84.923706,70.1603064 C84.9339599,70.1662856 84.9450682,70.1714109 84.9561768,70.1765363 C84.9587401,70.1782446 84.9621583,70.1799529 84.9647216,70.1808072 C84.9741211,70.1859323 84.984375,70.1902035 84.9946289,70.1944745 C84.9971924,70.1961828 84.9997557,70.1970371 85.0023193,70.1987454 C85.0134276,70.2030164 85.0236817,70.2081417 85.0339354,70.2132668 C85.036499,70.214121 85.0382081,70.2149753 85.0399169,70.2158295 C85.5423583,70.4353595 86.1123047,70.458423 86.6335448,70.2773321 C86.6352539,70.2764779 86.6352539,70.2764779 86.6361083,70.2764779 C86.673706,70.2628107 86.7104492,70.2491434 86.7471924,70.2337677 C86.7506104,70.2320594 86.7540284,70.2312052 86.7574463,70.2294967 C86.7642823,70.2269341 86.7711182,70.2243716 86.7779542,70.2209546 C86.7822266,70.2192463 86.786499,70.217538 86.7907714,70.2158295 C86.7967529,70.2132668 86.8018799,70.2107044 86.8078614,70.2081417 C86.8138427,70.2055791 86.8189698,70.2030164 86.8249511,70.2004537 C86.8300781,70.1987454 86.8352052,70.1961828 86.840332,70.1936201 C86.8463135,70.1910577 86.8531495,70.1876409 86.8599854,70.184224 C86.8642578,70.1825155 86.8676758,70.1808072 86.8719482,70.1782446 C86.8830567,70.1731192 86.8933104,70.1679941 86.9035646,70.162869 C87.6392823,69.7904365 88.1032714,69.0361759 88.1032714,68.2118703 L88.1032714,56.2368053 C88.1032714,55.5406302 87.7717286,54.8863109 87.2111817,54.4745854 L75.2038573,45.6575071 L77.7946776,43.755198 L101.384643,61.0784252 Z M60.9594727,98.136293 L51.0405273,98.136293 L51.0405273,85.0917664 L60.9594727,85.0917664 L60.9594727,98.136293 Z M63.1469727,80.7182495 L48.8530273,80.7182495 C47.6456299,80.7182495 46.6655273,81.6980199 46.6655273,82.905008 L46.6655273,98.136293 L32.4100341,98.136293 L32.4100341,66.2796643 L56,48.9564371 L79.5899659,66.2796643 L79.5908203,98.136293 L65.3344727,98.136293 L65.3344727,82.905008 C65.3344727,81.6980199 64.3543701,80.7182495 63.1469727,80.7182495 L63.1469727,80.7182495 Z M77.7946776,31.7801328 L105.522949,52.1426126 L105.522949,58.6900749 L79.090088,39.2783225 C78.3800049,38.757259 77.4323729,38.7162573 76.6855469,39.1561717 C76.6214599,39.1937566 76.5599365,39.2347583 76.5001221,39.2783225 L71.5090333,42.9437055 L67.0511474,39.6695473 L77.7946776,31.7801328 Z M56,36.9813719 L83.7282714,57.3438517 L83.7282714,63.891314 L83.072876,63.4095438 L57.2954102,44.4804159 C57.2347412,44.4359974 57.1732177,44.3949957 57.1099854,44.3582649 C56.425537,43.9550813 55.574463,43.9550813 54.8908692,44.3582649 C54.8267823,44.3958498 54.7652588,44.4359974 54.7045898,44.4804159 L28.927124,63.4095438 L28.2717286,63.891314 L28.2717286,57.3438517 L56,36.9813719 Z M6.47705078,52.1426126 L34.2053224,31.7801328 L44.9488526,39.6695473 L40.4909667,42.9437055 L35.4998779,39.2791768 C34.7299805,38.7128405 33.6806641,38.7128405 32.909912,39.2791768 L6.47705078,58.6900749 L6.47705078,52.1426126 Z M10.6153565,61.0784252 L34.2053224,43.7543437 L36.7961427,45.6575071 L24.7888182,54.4745854 C24.7802734,54.4805649 24.7717286,54.4873985 24.7631836,54.493378 C24.3128662,54.835059 24.0155029,55.3330589 23.9257812,55.8823112 C23.9223633,55.9036662 23.9189453,55.9250212 23.9163818,55.9463764 C23.9138182,55.9677314 23.9112549,55.9890864 23.9086914,56.0104417 C23.901001,56.0847571 23.8967286,56.1607813 23.8967286,56.2368053 L23.8967286,68.2118703 C23.8967286,69.0361759 24.3607177,69.7904365 25.0964354,70.162869 C25.107544,70.1679941 25.1195068,70.1739736 25.1306151,70.1799529 C25.3792724,70.2995414 25.642456,70.3695859 25.9090576,70.3909409 C26.4243164,70.4327968 26.9481201,70.2909993 27.3796386,69.9740901 L28.0350341,69.4923199 L28.0350341,88.6469572 L10.6162109,88.6469572 L10.6153565,61.0784252 Z M28.0350341,93.0204741 L28.0350341,98.136293 L4.375,98.136293 L4.375,93.0204741 L28.0350341,93.0204741 Z M107.625,107.626483 L4.375,107.626483 L4.375,102.50981 L89.03125,102.50981 C90.2395021,102.50981 91.21875,101.530894 91.21875,100.323051 C91.21875,99.1160633 90.2395021,98.136293 89.03125,98.136293 L83.9658203,98.136293 L83.9658203,93.0204741 L107.625,93.0204741 L107.625,107.626483 Z" id="Shape"></path>
                    <path d="M56,76.16 C50.8127764,76.16 46.592,71.9398825 46.592,66.7515753 C46.592,61.5641177 50.8127764,57.344 56,57.344 C61.1872236,57.344 65.408,61.5641177 65.408,66.7515753 C65.408,71.9398825 61.1872236,76.16 56,76.16 L56,76.16 Z M56,61.6915109 C53.2102113,61.6915109 50.9401639,63.9616606 50.9401639,66.7515753 C50.9401639,69.5414901 53.2102113,71.8116398 56,71.8116398 C58.7897887,71.8116398 61.0598361,69.5414901 61.0598361,66.7515753 C61.0598361,63.9616606 58.7897887,61.6915109 56,61.6915109 Z" id="Shape"></path>
                </g>
            </g>
        </g>
    </g>
</svg>