<?xml version="1.0" encoding="UTF-8"?>
<svg width="96px" height="129px" viewBox="0 0 96 129" version="1.1" xmlns="http://www.w3.org/2000/svg" xmlns:xlink="http://www.w3.org/1999/xlink">
    <!-- Generator: Sketch 57.1 (83088) - https://sketch.com -->
    <title>suitcase</title>
    <desc>Created with Sketch.</desc>
    <g id="Design" stroke="none" stroke-width="1" fill="none" fill-rule="evenodd">
        <g id="BDO-Home" transform="translate(-682.000000, -2136.000000)" fill="#C2CCC7" fill-rule="nonzero">
            <g id="Group" transform="translate(476.000000, 2122.000000)">
                <g id="suitcase" transform="translate(206.000000, 14.000000)">
                    <path d="M57.37493,28 L10.62507,28 C4.76630278,28 0,32.860006 0,38.8333877 L0,108.166612 C0,114.139994 4.76630278,119 10.62507,119 L38.2499533,119 L38.2499533,114.666594 L10.62507,114.666594 C7.11035753,114.666594 4.25007782,111.750235 4.25007782,108.166612 L4.25007782,38.8333877 C4.25007782,35.2497649 7.11035753,32.3334059 10.62507,32.3334059 L57.37493,32.3334059 C60.8896425,32.3334059 63.7499222,35.2497649 63.7499222,38.8333877 L63.7499222,40.9999637 L68,40.9999637 L68,38.8333877 C68,32.860006 63.2334482,28 57.37493,28 Z" id="Path"></path>
                    <path d="M46.6666667,0 L21.3333333,0 C17.8415885,0 15,2.91636719 15,6.5 C15,10.0836328 17.8415885,13 21.3333333,13 L46.6666667,13 C50.1584115,13 53,10.0836328 53,6.5 C53,2.91636719 50.1584115,0 46.6666667,0 Z M46.6666667,8.66658203 L21.3333333,8.66658203 C20.1700781,8.66658203 19.2223047,7.69386719 19.2223047,6.5 C19.2223047,5.30613281 20.1700781,4.33341797 21.3333333,4.33341797 L46.6666667,4.33341797 C47.8299219,4.33341797 48.7776954,5.30613281 48.7776954,6.5 C48.7776954,7.69386719 47.8299219,8.66658203 46.6666667,8.66658203 Z" id="Shape"></path>
                    <rect id="Rectangle" x="24" y="11" width="4" height="19"></rect>
                    <rect id="Rectangle" x="41" y="11" width="4" height="19"></rect>
                    <rect id="Rectangle" x="13" y="64" width="4" height="38"></rect>
                    <rect id="Rectangle" x="39" y="41" width="4" height="17"></rect>
                    <path d="M9.5,114 C5.36441558,114 2,117.364221 2,121.500126 C2,125.63603 5.36441558,129 9.5,129 C13.6355844,129 17,125.635779 17,121.499874 C17,117.36397 13.6355844,114 9.5,114 Z M9.5,124.714178 C7.72789366,124.714178 6.28575016,123.27201 6.28575016,121.499874 C6.28575016,119.727738 7.72789366,118.285571 9.5,118.285571 C11.2721063,118.285571 12.7142498,119.727738 12.7142498,121.499874 C12.7142498,123.27201 11.2721063,124.714178 9.5,124.714178 Z" id="Shape"></path>
                    <rect id="Rectangle" x="26" y="40" width="4" height="62"></rect>
                    <path d="M22.8505638,58.7686965 L18.6688526,48.3150408 C18.4598528,47.7924438 18.0479786,47.3764242 17.5273167,47.1610643 C17.0046947,46.9434993 16.4191032,46.9457043 15.9028516,47.1715995 L1.26722978,53.4437439 C0.497630255,53.7718064 0,54.5286289 0,55.3650781 L0,67.9093669 C0,68.6181682 0.357480326,69.2767434 0.951402402,69.6633623 C1.29638684,69.8850924 1.69355998,70 2.09097814,70 C2.37960858,70 2.66799401,69.9414437 2.94192342,69.8182058 L21.7592565,61.4554283 C22.7856342,60.9994728 23.2666033,59.8141355 22.8505638,58.7686965 Z M4.18171125,64.6917078 L4.18171125,56.7427448 L15.5808988,51.8588024 L18.2194908,58.4528842 L4.18171125,64.6917078 Z" id="Shape"></path>
                    <rect id="Rectangle" x="13" y="40" width="4" height="11"></rect>
                    <rect id="Rectangle" x="51" y="41" width="4" height="17"></rect>
                    <path d="M58.5,114 C54.3644156,114 51,117.364221 51,121.500126 C51,125.63603 54.3641645,129 58.5,129 C62.6355844,129 66,125.635779 66,121.499874 C66,117.36397 62.6355844,114 58.5,114 Z M58.5,124.714178 C56.7278937,124.714178 55.2857502,123.27201 55.2857502,121.499874 C55.2857502,119.727738 56.7278937,118.285571 58.5,118.285571 C60.2721063,118.285571 61.7142498,119.727738 61.7142498,121.499874 C61.7142498,123.27201 60.2721063,124.714178 58.5,124.714178 Z" id="Shape"></path>
                    <path d="M118.221913,54 L42.7778339,54 C36.8348312,54 32,58.7852313 32,64.6667083 L32,107.333292 C32,113.214769 36.8348312,118 42.7778339,118 L118.222166,118 C124.164916,118 129,113.215019 129,107.333292 L129,64.6667083 C129,58.7852313 124.164916,54 118.221913,54 Z M124.688816,107.333292 C124.688816,110.861778 121.787159,113.733267 118.221913,113.733267 L42.7778339,113.733267 C39.212588,113.733267 36.3111841,110.861778 36.3111841,107.333292 L36.3111841,64.6667083 C36.3111841,61.1382221 39.212588,58.2667333 42.7778339,58.2667333 L118.222166,58.2667333 C121.787412,58.2667333 124.688816,61.1382221 124.688816,64.6667083 L124.688816,107.333292 L124.688816,107.333292 Z" id="Shape"></path>
                    <path d="M88.908935,45 L70.09082,45 C68.934535,45 68,45.9856326 68,47.1999484 L68,56 L72.181885,56 L72.181885,49.3998969 L86.818115,49.3998969 L86.818115,56 L91,56 L91,47.1999484 C90.999755,45.9856326 90.0652199,45 88.908935,45 Z" id="Path"></path>
                    <path d="M89.2104864,36 L69.7895136,36 C63.8403234,36 59,40.7351562 59,46.555638 L59,55 L63.315856,55 L63.315856,46.555638 C63.315856,43.0638932 66.2204041,40.2223047 69.7895136,40.2223047 L89.2104864,40.2223047 C92.7795959,40.2223047 95.684144,43.0638932 95.684144,46.555638 L95.684144,55 L100,55 L100,46.555638 C100,40.7351562 95.1596766,36 89.2104864,36 Z" id="Path"></path>
                    <path d="M89.5958443,77.6532643 L78.7625956,62.8351955 C77.9501082,61.7216015 76.0499036,61.7216015 75.2374163,62.8351955 L64.4041675,77.6532643 C63.9319093,78.298995 63.8689415,79.1456638 64.2393849,79.8526682 C64.6121135,80.5576881 65.3552855,81 66.1677728,81 L87.8340163,81 C88.6465036,81 89.3896756,80.5576881 89.760119,79.8526682 C90.1310703,79.1459119 90.0683564,78.298995 89.5958443,77.6532643 Z M70.3779805,76.7664078 L77.0012754,67.7083166 L83.6225392,76.7664078 L70.3779805,76.7664078 Z" id="Shape"></path>
                    <path d="M111.41323,83.7563498 C104.49383,81.546517 97.3458114,84.3449985 95.467372,89.9889524 C94.5260904,92.813203 95.0165775,95.874429 96.848623,98.6122771 C98.5796327,101.1993 101.331052,103.197674 104.592804,104.243346 C106.200612,104.756456 107.819245,105 109.383237,105 C114.545337,105 119.09813,102.344007 120.543043,98.0107438 C122.423545,92.3627478 118.328248,85.9684563 111.41323,83.7563498 Z M116.357536,96.6742839 C115.231452,100.063183 110.562159,101.61767 105.956528,100.14529 C103.638377,99.4015212 101.70942,98.0175651 100.524055,96.2475767 C99.439725,94.6263927 99.1273391,92.8801523 99.6443738,91.3279387 C99.6443738,91.3279387 99.6443738,91.3279387 99.6466935,91.3279387 C100.48462,88.8078653 103.282433,87.3028952 106.55501,87.3028952 C107.683414,87.3028952 108.866718,87.4797424 110.04332,87.8569324 C114.653074,89.333607 117.48362,93.2874063 116.357536,96.6742839 Z" id="Shape"></path>
                    <path d="M41.5,114 C37.3644156,114 34,117.364221 34,121.500126 C34,125.63603 37.3644156,129 41.5,129 C45.6355844,129 49,125.635779 49,121.499874 C49,117.36397 45.6355844,114 41.5,114 Z M41.5,124.714178 C39.7278937,124.714178 38.2857502,123.27201 38.2857502,121.499874 C38.2857502,119.727738 39.7278937,118.285571 41.5,118.285571 C43.2721063,118.285571 44.7142498,119.727738 44.7142498,121.499874 C44.7142498,123.27201 43.2721063,124.714178 41.5,124.714178 Z" id="Shape"></path>
                    <rect id="Rectangle" x="51" y="99" width="4" height="17"></rect>
                    <path d="M53.8331641,53 L45.166582,53 C43.9706836,53 43,53.95575 43,55.13325 L43,80.73325 L47.333418,80.73325 L47.333418,57.26675 L51.666582,57.26675 L51.666582,85 L56,85 L56,55.1335 C56,53.95575 55.0293164,53 53.8331641,53 Z" id="Path"></path>
                    <rect id="Rectangle" x="43" y="93" width="4" height="23"></rect>
                    <path d="M60.9349635,88.2350953 L35.1865994,73 L33.0236362,76.7630555 L57.0339858,90.968756 L54.6779099,95.7461583 L35.2079725,83.8974048 L33,87.630109 L54.4568863,100.688835 C54.7958394,100.893388 55.1757786,101 55.5620041,101 C55.7636661,101 55.9653281,100.971689 56.1627155,100.913027 C56.735516,100.743161 57.2140232,100.338392 57.4823191,99.7964037 L61.773797,91.0906714 C62.2782034,90.063317 61.9133511,88.8161066 60.9349635,88.2350953 Z" id="Path"></path>
                </g>
            </g>
        </g>
    </g>
</svg>