<?xml version="1.0" encoding="UTF-8"?>
<svg width="51px" height="117px" viewBox="0 0 51 117" version="1.1" xmlns="http://www.w3.org/2000/svg" xmlns:xlink="http://www.w3.org/1999/xlink">
    <!-- Generator: Sketch 58 (84663) - https://sketch.com -->
    <title>pos</title>
    <desc>Created with Sketch.</desc>
    <g id="BDO-Home" stroke="none" stroke-width="1" fill="none" fill-rule="evenodd">
        <g transform="translate(-1175.000000, -4731.000000)" fill="#C2CCC7" fill-rule="nonzero" id="Group-Copy-17">
            <g transform="translate(958.000000, 4718.000000)">
                <g id="pos" transform="translate(242.541631, 75.479185) rotate(-45.000000) translate(-242.541631, -75.479185) translate(192.541631, 25.479185)">
                    <path d="M49.7338266,26.3693951 L34.7757721,41.3274496 L59.2672589,65.8189364 L74.2253134,50.8608819 L49.7338266,26.3693951 Z M39.2693951,41.3274496 L49.7338266,30.8630181 L69.7316904,50.8608819 L59.2672589,61.3253134 L39.2693951,41.3274496 Z" id="Shape"></path>
                    <path d="M99.5007744,11.9261364 L94.5449292,10.9093727 L94.1344783,5.8341378 L89.0490992,5.41666398 L88.0151682,0.44521227 L81.2583327,0.44521227 L66.712291,14.9912537 C64.2979651,12.8274121 61.2195823,11.6319539 57.9500198,11.6319539 C54.4307531,11.6319539 51.1245154,13.0014246 48.6360585,15.4898816 L27.9004778,36.2254622 C25.7272721,38.398668 24.0480123,40.9456494 22.9063967,43.7985182 C21.9286494,46.2471785 20.485828,48.4328692 18.6208509,50.299407 L3.14778296,65.772475 C1.41233978,67.5079181 0.418205617,69.9081982 0.418205617,72.35998 C0.418205617,74.8117617 1.41233978,77.2120418 3.14622241,78.9459244 L21.0000623,96.7997643 C22.7581349,98.5593976 25.0975498,99.5277811 27.5860067,99.5277811 C30.0744637,99.5277811 32.4138786,98.5593976 34.1719512,96.7997643 L49.6465797,81.3266965 C51.5084354,79.46328 53.6956869,78.0204588 56.1474685,77.0395899 C59.0018981,75.8964136 61.5504402,74.2155931 63.7205244,72.0431678 L84.4561051,51.3083676 C86.9445621,48.8214712 88.3140328,45.5152335 88.3140328,41.9959669 C88.3140328,38.7264044 87.1185746,35.6480216 84.954733,33.2321349 L99.5007744,18.6860934 L99.5007744,11.9261364 Z M64.4540301,17.2510754 L58.5555521,23.1495534 L52.1233317,16.717333 C53.8111751,15.4961242 55.8259748,14.8281658 57.9500198,14.8281658 C60.3651262,14.8281658 62.6436757,15.6880842 64.4540301,17.2510754 Z M23.259884,94.5399426 L5.4060441,76.6861027 C4.26833011,75.5468279 3.61441751,73.9705711 3.61441751,72.35998 C3.61441751,70.8414673 4.21214669,69.3666526 5.23203154,68.2461057 L31.6983205,94.7123944 C29.3596858,96.8286363 25.5056599,96.7841578 23.259884,94.5399426 L23.259884,94.5399426 Z M61.4607028,69.7856872 C59.5957255,71.6506644 57.4100347,73.0919249 54.9598137,74.0727938 C52.1038236,75.2175308 49.5552815,76.8983511 47.386758,79.0692159 L33.9784305,92.4736415 L7.47234516,65.9675562 L20.8791119,52.5592287 C23.0523176,50.3860232 24.7331379,47.8367008 25.8731929,44.986173 C26.8525011,42.5359519 28.2937617,40.3502612 30.1587388,38.4852839 L49.7644088,18.8796141 L81.0648121,50.1800173 L61.4607028,69.7856872 Z M85.1178209,41.9959669 C85.1178209,44.1200119 84.4498625,46.1348116 83.2286537,47.822655 L76.7964333,41.3904346 L82.6949113,35.4919566 C84.2579025,37.302311 85.1178209,39.5808605 85.1178209,41.9959669 Z M96.3045625,17.362662 L74.5366116,39.1306129 L60.8153738,25.4093751 L82.5833247,3.64142417 L85.4151247,3.64142417 L86.404577,8.40687003 L91.1669016,8.79859317 L91.5516019,13.5593572 L96.3045625,14.5339833 L96.3045625,17.362662 Z" id="Shape"></path>
                    <polygon id="Path" points="66.5114447 26.1499253 68.9393966 23.7228114 77.520619 32.3040337 75.093505 34.7319857"></polygon>
                    <polygon id="Path" points="71.0524974 21.6088726 73.4804494 19.1817586 82.0616717 27.762981 79.6345578 30.1909329"></polygon>
                    <polygon id="Path" points="76.2422719 16.419098 78.6702239 13.9919841 87.2514462 22.5740445 84.8243323 25.0011584"></polygon>
                    <polygon id="Path" points="80.7833247 11.8780453 83.2112766 9.45093137 91.792499 18.0329917 89.365385 20.4601057"></polygon>
                    <path d="M49.95949,60.9686643 C47.4307307,60.9686643 45.3723341,63.0270609 45.3723341,65.5558203 C45.3723341,68.0845797 47.4307307,70.1429763 49.95949,70.1429763 C52.4882494,70.1429763 54.546646,68.0845797 54.546646,65.5558203 C54.546646,63.0270609 52.4882494,60.9686643 49.95949,60.9686643 Z M49.95949,67.0848723 C49.1173169,67.0848723 48.430438,66.3994866 48.430438,65.5558203 C48.430438,64.712154 49.1173169,64.0267683 49.95949,64.0267683 C50.8016632,64.0267683 51.488542,64.712154 51.488542,65.5558203 C51.488542,66.3994866 50.8016632,67.0848723 49.95949,67.0848723 Z" id="Shape"></path>
                    <path d="M41.5261064,69.402048 C38.997347,69.402048 36.9389504,71.4604446 36.9389504,73.9892039 C36.9389504,76.5179633 38.997347,78.5763599 41.5261064,78.5763599 C44.0548658,78.5763599 46.1132624,76.5179633 46.1132624,73.9892039 C46.1132624,71.4604446 44.0548658,69.402048 41.5261064,69.402048 Z M41.5261064,75.5182559 C40.6839332,75.5182559 39.9970544,74.8328702 39.9970544,73.9892039 C39.9970544,73.1455376 40.6839332,72.4601519 41.5261064,72.4601519 C42.3682796,72.4601519 43.0551584,73.1455376 43.0551584,73.9892039 C43.0551584,74.8328702 42.3682796,75.5182559 41.5261064,75.5182559 Z" id="Shape"></path>
                    <path d="M33.7414446,77.1867098 C31.2126852,77.1867098 29.1542886,79.2451064 29.1542886,81.7738657 C29.1542886,84.3026251 31.2126852,86.3610217 33.7414446,86.3610217 C36.2702039,86.3610217 38.3286005,84.3026251 38.3286005,81.7738657 C38.3286005,79.2451064 36.2702039,77.1867098 33.7414446,77.1867098 Z M33.7414446,83.3029177 C32.8992714,83.3029177 32.2123926,82.617532 32.2123926,81.7738657 C32.2123926,80.9301995 32.8992714,80.2448137 33.7414446,80.2448137 C34.5836177,80.2448137 35.2704966,80.9301995 35.2704966,81.7738657 C35.2704966,82.617532 34.5836177,83.3029177 33.7414446,83.3029177 Z" id="Shape"></path>
                    <path d="M46.7619842,57.7711585 C46.7619842,55.2423991 44.7035876,53.1840025 42.1748282,53.1840025 C39.6460688,53.1840025 37.5876722,55.2423991 37.5876722,57.7711585 C37.5876722,60.2999179 39.6460688,62.3583144 42.1748282,62.3583144 C44.7035876,62.3583144 46.7619842,60.2999179 46.7619842,57.7711585 Z M40.6457762,57.7711585 C40.6457762,56.9274922 41.332655,56.2421065 42.1748282,56.2421065 C43.0170014,56.2421065 43.7038802,56.9274922 43.7038802,57.7711585 C43.7038802,58.6148248 43.0170014,59.3002105 42.1748282,59.3002105 C41.332655,59.3002105 40.6457762,58.6148248 40.6457762,57.7711585 Z" id="Shape"></path>
                    <path d="M33.7414446,61.6173862 C31.2126852,61.6173862 29.1542886,63.6757827 29.1542886,66.2045421 C29.1542886,68.7333015 31.2126852,70.7916981 33.7414446,70.7916981 C36.2702039,70.7916981 38.3286005,68.7333015 38.3286005,66.2045421 C38.3286005,63.6757827 36.2702039,61.6173862 33.7414446,61.6173862 Z M33.7414446,67.7335941 C32.8992714,67.7335941 32.2123926,67.0482084 32.2123926,66.2045421 C32.2123926,65.3608758 32.8992714,64.6754901 33.7414446,64.6754901 C34.5836177,64.6754901 35.2704966,65.3608758 35.2704966,66.2045421 C35.2704966,67.0482084 34.5836177,67.7335941 33.7414446,67.7335941 Z" id="Shape"></path>
                    <path d="M30.5439387,73.9892039 C30.5439387,71.4604446 28.4855421,69.402048 25.9567828,69.402048 C23.4280234,69.402048 21.3696268,71.4604446 21.3696268,73.9892039 C21.3696268,76.5179633 23.4280234,78.5763599 25.9567828,78.5763599 C28.4855421,78.5763599 30.5439387,76.5179633 30.5439387,73.9892039 Z M25.9567828,75.5182559 C25.1146096,75.5182559 24.4277308,74.8328702 24.4277308,73.9892039 C24.4277308,73.1455376 25.1146096,72.4601519 25.9567828,72.4601519 C26.7989559,72.4601519 27.4858348,73.1455376 27.4858348,73.9892039 C27.4858348,74.8328702 26.7989559,75.5182559 25.9567828,75.5182559 Z" id="Shape"></path>
                    <path d="M34.3901664,54.5736526 C36.9189258,54.5736526 38.9773224,52.515256 38.9773224,49.9864967 C38.9773224,47.4577373 36.9189258,45.3993407 34.3901664,45.3993407 C31.861407,45.3993407 29.8030104,47.4577373 29.8030104,49.9864967 C29.8030104,52.515256 31.861407,54.5736526 34.3901664,54.5736526 Z M34.3901664,48.4574447 C35.2323396,48.4574447 35.9192184,49.1443235 35.9192184,49.9864967 C35.9192184,50.8286698 35.2323396,51.5155487 34.3901664,51.5155487 C33.5479932,51.5155487 32.8611144,50.8286698 32.8611144,49.9864967 C32.8611144,49.1443235 33.5479932,48.4574447 34.3901664,48.4574447 Z" id="Shape"></path>
                    <path d="M25.9567828,63.0070363 C28.4855421,63.0070363 30.5439387,60.9486397 30.5439387,58.4198803 C30.5439387,55.8911209 28.4855421,53.8327243 25.9567828,53.8327243 C23.4280234,53.8327243 21.3696268,55.8911209 21.3696268,58.4198803 C21.3696268,60.9486397 23.4280234,63.0070363 25.9567828,63.0070363 Z M25.9567828,56.8908283 C26.7989559,56.8908283 27.4858348,57.576214 27.4858348,58.4198803 C27.4858348,59.2635466 26.7989559,59.9489323 25.9567828,59.9489323 C25.1146096,59.9489323 24.4277308,59.2635466 24.4277308,58.4198803 C24.4277308,57.576214 25.1146096,56.8908283 25.9567828,56.8908283 Z" id="Shape"></path>
                    <path d="M22.7592769,66.2045421 C22.7592769,63.6757827 20.7008803,61.6173862 18.172121,61.6173862 C15.6433616,61.6173862 13.584965,63.6757827 13.584965,66.2045421 C13.584965,68.7333015 15.6433616,70.7916981 18.172121,70.7916981 C20.7008803,70.7916981 22.7592769,68.7333015 22.7592769,66.2045421 Z M18.172121,67.7335941 C17.3299478,67.7335941 16.643069,67.0482084 16.643069,66.2045421 C16.643069,65.3608758 17.3299478,64.6754901 18.172121,64.6754901 C19.0142941,64.6754901 19.7011729,65.3608758 19.7011729,66.2045421 C19.7011729,67.0482084 19.0142941,67.7335941 18.172121,67.7335941 Z" id="Shape"></path>
                </g>
            </g>
        </g>
    </g>
</svg>