<?xml version="1.0" encoding="UTF-8"?>
<svg width="80px" height="80px" viewBox="0 0 80 80" version="1.1" xmlns="http://www.w3.org/2000/svg" xmlns:xlink="http://www.w3.org/1999/xlink">
    <!-- Generator: Sketch 59 (86127) - https://sketch.com -->
    <title>payment-method (1)</title>
    <desc>Created with Sketch.</desc>
    <g id="P-Vivienda" stroke="none" stroke-width="1" fill="none" fill-rule="evenodd">
        <g id="Vivienda-|-S1-Fondos" transform="translate(-876.000000, -717.000000)" fill="#C2CCC7" fill-rule="nonzero">
            <g id="Group-2" transform="translate(506.000000, 372.000000)">
                <g id="Group-Copy-3" transform="translate(170.000000, 316.000000)">
                    <g id="payment-method-(1)" transform="translate(200.000000, 29.000000)">
                        <path d="M21.25,61.0885938 C19.9576562,61.0885938 18.90625,60.0371875 18.90625,58.7448438 L14.21875,58.7448438 C14.21875,61.8003125 16.1782812,64.4054687 18.90625,65.3729687 L18.90625,70.1509375 L23.59375,70.1509375 L23.59375,65.3729687 C26.3217188,64.4054687 28.28125,61.8003125 28.28125,58.7448438 C28.28125,54.8678125 25.1270312,51.7135937 21.25,51.7135937 C19.9576562,51.7135937 18.90625,50.6621875 18.90625,49.3698437 C18.90625,48.0775 19.9576562,47.0260937 21.25,47.0260937 C22.5423438,47.0260937 23.59375,48.0775 23.59375,49.3696875 L28.28125,49.3696875 C28.28125,46.314375 26.3217188,43.7092188 23.59375,42.741875 L23.59375,37.65125 L18.90625,37.65125 L18.90625,42.741875 C16.1782812,43.709375 14.21875,46.3145313 14.21875,49.37 C14.21875,53.2470312 17.3729687,56.40125 21.25,56.40125 C22.5423438,56.40125 23.59375,57.4526563 23.59375,58.745 C23.59375,60.0373438 22.5423438,61.0885938 21.25,61.0885938 L21.25,61.0885938 Z" id="Path"></path>
                        <polygon id="Path" points="47.03125 51.7134375 51.71875 51.7134375 51.71875 56.4009375 47.03125 56.4009375"></polygon>
                        <path d="M41.2551562,0.0053125 L22.4678125,18.9009375 L7.03125,18.9009375 C3.15421875,18.9009375 0,22.0551563 0,25.9321875 L0,72.9634375 C0,76.8404687 3.15421875,79.9946875 7.03125,79.9946875 L80,79.9946875 C80,78.9032813 80,19.958125 80,18.9009375 L60.0423438,18.9009375 L41.2551562,0.0053125 Z M62.7535938,28.2759375 L45.4971875,28.2759375 C45.7510938,28.0835937 45.995625,27.8734375 46.2270313,27.641875 C48.975,24.8942187 48.9753125,20.4464062 46.2270313,17.6982812 C43.4854688,14.9567187 39.0245313,14.956875 36.2832813,17.6982812 C35.011875,18.9696875 34.3310938,20.6110937 34.2390625,22.2790625 C32.5064063,22.3725 30.890625,23.0909375 29.6542188,24.3273437 C28.5665625,25.4148437 27.8898438,26.8057812 27.673125,28.2759375 L19.7565625,28.2759375 L41.2551563,6.65359375 L62.7535938,28.2759375 Z M39.5978125,21.0128125 C40.5135938,20.0970313 41.9964063,20.0967188 42.9125,21.0128125 C43.8285938,21.9289063 43.8285938,23.4110938 42.9125,24.3273438 C41.9985938,25.24125 40.5115625,25.2410938 39.5979687,24.3273438 C38.6840625,23.4134375 38.6840625,21.9265625 39.5978125,21.0128125 Z M36.2832813,27.641875 C36.4709375,27.8295312 36.6220313,28.044375 36.734375,28.2757812 L32.5176563,28.2757812 C32.63,28.0442187 32.7810938,27.8295312 32.96875,27.6417187 C33.8846875,26.7259375 35.3671875,26.7257812 36.2832813,27.641875 Z M7.03125,23.5884375 L17.8071875,23.5884375 L13.1465625,28.2759375 L7.03125,28.2759375 C5.73890625,28.2759375 4.6875,27.2245312 4.6875,25.9321875 C4.6875,24.6398438 5.73890625,23.5884375 7.03125,23.5884375 Z M75.3125,61.0884375 L49.375,61.0884375 C45.4979688,61.0884375 42.34375,57.9342187 42.34375,54.0571875 C42.34375,50.1801563 45.4979688,47.0259375 49.375,47.0259375 L75.3125,47.0259375 L75.3125,61.0884375 Z M75.3125,42.3384375 L49.375,42.3384375 C42.9132813,42.3384375 37.65625,47.5954687 37.65625,54.0571875 C37.65625,60.5189063 42.9132813,65.7759375 49.375,65.7759375 L75.3125,65.7759375 L75.3125,75.3071875 L7.03125,75.3071875 C5.73890625,75.3071875 4.6875,74.2557813 4.6875,72.9634375 L4.6875,32.5603125 C5.42109375,32.8204688 6.20953125,32.9634375 7.03125,32.9634375 L75.3125,32.9634375 L75.3125,42.3384375 Z M75.3125,23.5884375 L75.3125,28.2759375 L69.36375,28.2759375 L64.703125,23.5884375 L75.3125,23.5884375 Z" id="Shape"></path>
                    </g>
                </g>
            </g>
        </g>
    </g>
</svg>