<?xml version="1.0" encoding="UTF-8"?>
<svg width="256px" height="256px" viewBox="0 0 256 256" version="1.1" xmlns="http://www.w3.org/2000/svg" xmlns:xlink="http://www.w3.org/1999/xlink">
    <!-- Generator: Sketch 58 (84663) - https://sketch.com -->
    <title>bdo-404</title>
    <desc>Created with Sketch.</desc>
    <defs>
        <linearGradient x1="100%" y1="96.3438875%" x2="0%" y2="3.65611254%" id="linearGradient-1">
            <stop stop-color="#30835E" offset="0%"></stop>
            <stop stop-color="#4BAB3C" offset="100%"></stop>
        </linearGradient>
        <linearGradient x1="96.3438875%" y1="100%" x2="3.65611254%" y2="0%" id="linearGradient-2">
            <stop stop-color="#30835E" offset="0%"></stop>
            <stop stop-color="#4BAB3C" offset="100%"></stop>
        </linearGradient>
        <linearGradient x1="100%" y1="96.3378243%" x2="0%" y2="3.66217571%" id="linearGradient-3">
            <stop stop-color="#30835E" offset="0%"></stop>
            <stop stop-color="#4BAB3C" offset="100%"></stop>
        </linearGradient>
    </defs>
    <g id="404" stroke="none" stroke-width="1" fill="none" fill-rule="evenodd">
        <g id="Error-404" transform="translate(-216.000000, -371.000000)">
            <g id="bdo-404" transform="translate(216.000000, 371.000000)">
                <path d="M33.0322581,214.709677 L18.7217745,214.709677 C14.25,209.328629 10.6068547,203.268145 7.96572594,196.657258 L0.296371097,199.725806 C3.26612903,207.157258 7.36290323,213.965726 12.3870968,220.008065 L12.3870968,227.096774 C12.3870968,243.034274 25.3528227,256 41.2903226,256 L61.9354839,256 L61.9354839,243.612903 C61.9354839,227.675403 48.9697579,214.709677 33.0322581,214.709677 Z M53.6774194,247.741935 L41.2903226,247.741935 C30.4193548,247.741935 21.5786292,239.270162 20.7983871,228.590726 C23.2620965,230.741935 25.8467742,232.770162 28.6008062,234.606855 L34.8729837,238.790323 L39.4536289,231.919355 L33.1814514,227.735887 C30.979839,226.270162 28.9153228,224.657258 26.9254034,222.967742 L33.0322581,222.967742 C44.4153228,222.967742 53.6774194,232.229838 53.6774194,243.612903 L53.6774194,247.741935 Z" id="Shape" fill="url(#linearGradient-1)"></path>
                <path d="M243.612903,0 C227.675403,0 214.709677,12.9657259 214.709677,28.9032258 L214.709677,43.2137094 C209.328629,47.6854839 203.268145,51.3286292 196.657258,53.9697579 L199.725806,61.6391128 C207.153226,58.6653223 213.961693,54.5725806 220.004032,49.5443551 L227.096774,49.5443551 C243.034274,49.5443551 256,36.5786292 256,20.6411293 L256,0 L243.612903,0 Z M247.741935,20.6451613 C247.741935,31.516129 239.270162,40.3568547 228.590726,41.1370968 C230.741935,38.6733874 232.770162,36.0887097 234.606855,33.3346777 L238.790323,27.0625001 L231.919355,22.481855 L227.735887,28.7540325 C226.270162,30.9556449 224.657258,33.020161 222.967742,35.0100805 L222.967742,28.9032258 C222.967742,17.520161 232.229838,8.25806452 243.612903,8.25806452 L247.741935,8.25806452 L247.741935,20.6451613 Z" id="Shape" fill="url(#linearGradient-2)"></path>
                <path d="M7.96572594,59.3427417 C10.6068547,52.731855 14.25,46.6713708 18.7217745,41.2903226 L33.0322581,41.2903226 C48.9697579,41.2903226 61.9354839,28.3245966 61.9354839,12.3870968 L61.9354839,0 L41.2903226,0 C25.3528227,0 12.3870968,12.9657259 12.3870968,28.9032258 L12.3870968,35.9919355 C7.36290323,42.0342741 3.26612903,48.8427417 0.292338581,56.2701615 L7.96572594,59.3427417 Z M41.2903226,8.25806452 L53.6774194,8.25806452 L53.6774194,12.3870968 C53.6774194,23.7701615 44.4153228,33.0322581 33.0322581,33.0322581 L26.9254034,33.0322581 C28.9153228,31.3427417 30.979839,29.7298385 33.1774194,28.264113 L39.4495969,24.0806452 L34.8689517,17.2096774 L28.5967742,21.3931453 C25.8427417,23.2298385 23.2580645,25.2580645 20.7943546,27.4092743 C21.5786292,16.7298385 30.4193548,8.25806452 41.2903226,8.25806452 Z" id="Shape" fill="url(#linearGradient-3)"></path>
                <path d="M111.165322,107.066532 L111.798387,115.298387 C127.094758,114.122984 137.893145,109.639113 143.897177,101.97379 C149.185484,95.2197579 148.830645,88.2177419 148.637097,86.4455644 C148.5,75.1814514 139.296371,66.0645161 128,66.0645161 C121.171371,66.0645161 115.612903,71.6229837 115.612903,78.4516129 C115.612903,85.2802421 121.171371,90.8387097 128,90.8387097 L132.129032,90.8387097 L132.129032,82.5806452 L128,82.5806452 C125.725806,82.5806452 123.870968,80.7258065 123.870968,78.4516129 C123.870968,76.1774194 125.725806,74.3225806 128,74.3225806 C134.828629,74.3225806 140.387097,79.8810483 140.387097,86.7096774 L140.4375,87.3407257 C140.465726,87.5403226 141.084677,92.2963711 137.278226,97.0362901 C132.786291,102.627016 123.756049,106.094758 111.165322,107.066532 L111.165322,107.066532 Z" id="Path" fill="#8A9992" fill-rule="nonzero"></path>
                <path d="M33.5524191,146.639113 L40.766129,150.655242 C40.9516129,150.326613 59.6693548,117.713709 99.3064516,115.707661 L98.8870968,107.461693 C54.5645161,109.703629 34.3911288,145.131048 33.5524191,146.639113 Z" id="Path" fill="#8A9992" fill-rule="nonzero"></path>
                <path d="M213.756049,82.5806452 C193.792339,82.5806452 177.548387,98.8245966 177.548387,118.788307 L177.548387,121.806452 C177.548387,134.330645 187.733871,144.516129 200.258065,144.516129 C212.782258,144.516129 222.967742,134.330645 222.967742,121.806452 L214.709677,121.806452 C214.709677,129.77621 208.227822,136.258065 200.258065,136.258065 C192.288307,136.258065 185.806452,129.77621 185.806452,121.806452 L185.806452,118.788307 C185.806452,103.379032 198.346774,90.8387097 213.760081,90.8387097 C232.497984,90.8387097 247.741935,106.082661 247.741935,124.824597 C247.741935,130.883065 246.177419,136.754033 243.211693,141.798387 C238.058468,150.572581 228.215726,161.032258 210.580645,161.032258 C196.247984,161.032258 183.65121,157.844758 169.058468,154.149193 C162.856855,152.580645 156.4375,150.953629 149.5,149.487903 L147.790323,157.568548 C154.570565,159 160.905242,160.602823 167.032258,162.155242 C181.528226,165.822581 195.219758,169.290323 210.580645,169.290323 C232.116935,169.290323 244.08871,156.614919 250.330645,145.981855 C254.038307,139.669355 256,132.352823 256,124.820565 C256,101.528226 237.052419,82.5806452 213.756049,82.5806452 L213.756049,82.5806452 Z" id="Path" fill="#8A9992" fill-rule="nonzero"></path>
                <path d="M21.2076614,196.112903 L28.3366937,200.274194 C28.6189517,199.804436 56.6955644,152.774194 103.225806,152.774194 C111.520161,152.774194 119.469758,153.235887 127.516129,154.185484 L128.483871,145.985887 C120.108871,144.995968 111.846774,144.516129 103.225806,144.516129 C51.8931453,144.516129 22.4374999,194.006049 21.2076614,196.112903 L21.2076614,196.112903 Z" id="Path" fill="#8A9992" fill-rule="nonzero"></path>
                <path d="M194.064516,181.677419 C182.681451,181.677419 173.419355,190.939516 173.419355,202.322581 L181.677419,202.322581 C181.677419,195.493951 187.235887,189.935484 194.064516,189.935484 C200.893145,189.935484 206.451613,195.493951 206.451613,202.322581 C206.451613,203.165322 206.171371,222.967742 181.677419,222.967742 C163.826613,222.967742 156.366936,216.554436 131.649193,195.30242 L126.558468,190.931452 C96.0544356,164.786291 65.7177419,177.33871 64.4374999,177.883065 L67.6794354,185.475806 C68.7721775,185.018145 94.7076614,174.502016 121.183468,197.19758 L126.266129,201.5625 C151.370968,223.149193 160.768145,231.225806 181.677419,231.225806 C214.334678,231.225806 214.709677,202.610887 214.709677,202.322581 C214.709677,190.939516 205.447581,181.677419 194.064516,181.677419 Z" id="Path" fill="#8A9992" fill-rule="nonzero"></path>
                <polygon id="Path" fill="#C2CCC7" fill-rule="nonzero" points="177.548387 57.8064516 185.806452 57.8064516 185.806452 66.0645161 177.548387 66.0645161"></polygon>
                <polygon id="Path" fill="#C2CCC7" fill-rule="nonzero" points="24.7741935 156.903226 33.0322581 156.903226 33.0322581 165.16129 24.7741935 165.16129"></polygon>
                <polygon id="Path" fill="#C2CCC7" fill-rule="nonzero" points="218.83871 239.483871 227.096774 239.483871 227.096774 247.741935 218.83871 247.741935"></polygon>
                <polygon id="Path" fill="#C2CCC7" fill-rule="nonzero" points="239.483871 173.419355 247.741935 173.419355 247.741935 181.677419 239.483871 181.677419"></polygon>
                <polygon id="Path" fill="#C2CCC7" fill-rule="nonzero" points="57.8064516 66.0645161 66.0645161 66.0645161 66.0645161 74.3225806 57.8064516 74.3225806"></polygon>
                <polygon id="Path" fill="#C2CCC7" fill-rule="nonzero" points="123.870968 0 132.129032 0 132.129032 8.25806452 123.870968 8.25806452"></polygon>
                <polygon id="Path" fill="#C2CCC7" fill-rule="nonzero" points="0 111.483871 8.25806452 111.483871 8.25806452 119.741935 0 119.741935"></polygon>
            </g>
        </g>
    </g>
</svg>